# xmcd
#
# Track frame offsets: 
#        150
#        12870
#        26905
#        41490
#        54963
#        67678
#        80185
#        94358
#        108855
#        123580
#        138485
#        150790
#
# Disc length: 2191 seconds
#
# Revision: 1
# Processed by: cddbd v1.5.2PL0 Copyright (c) Steve Scherf et al.
# Submitted via: ExactAudioCopy v1.0b3
#
DISCID=92088d0c
DTITLE=Charley Pride - I'm gonna love her on the radio
DYEAR=1988
DGENRE=Country
TTITLE0=charley pride - I'm gonna love her on the radio
TTITLE1=charley pride - She's soft to touch
TTITLE2=charley pride - Shouldn't it be easier than this
TTITLE3=charley pride - Your used to be
TTITLE4=charley pride - Where was I
TTITLE5=charley pride - Do what you do do well
TTITLE6=charley pride - Come on in and let me love you
TTITLE7=charley pride - A whole lot of lovin
TTITLE8=charley pride - Leaving never gets me anywhere
TTITLE9=charley pride - There an't no me if there an't no you
TTITLE10=charley pride - A little piece of heaven
TTITLE11=charley pride - If we're just killing time
EXTD=YEAR: 1988
EXTT0=
EXTT1=
EXTT2=
EXTT3=
EXTT4=
EXTT5=
EXTT6=
EXTT7=
EXTT8=
EXTT9=
EXTT10=
EXTT11=
PLAYORDER=
